<svg version="1.1" id="Layer_1" xmlns="http://www.w3.org/2000/svg" xmlns:xlink="http://www.w3.org/1999/xlink" x="0px" y="0px"
	 width="100%" viewBox="0 0 512 512" enable-background="new 0 0 512 512" xml:space="preserve">
<path fill="#000000" opacity="1.000000" stroke="none" 
	d="
M221.000000,513.000000 
	C147.351181,513.000000 74.202370,513.000000 1.026775,513.000000 
	C1.026775,342.392822 1.026775,171.785645 1.026775,1.089229 
	C171.565506,1.089229 342.131073,1.089229 512.848328,1.089229 
	C512.848328,171.666565 512.848328,342.333252 512.848328,513.000000 
	C415.785614,513.000000 318.642792,513.000000 221.000000,513.000000 
M261.459625,199.180466 
	C243.040497,199.180466 224.621353,199.180466 206.340271,199.180466 
	C206.340271,272.624725 206.340271,345.367645 206.340271,417.907867 
	C229.048065,417.907867 251.442459,417.907867 274.027832,417.907867 
	C274.027832,415.751190 274.027802,413.933105 274.027832,412.114990 
	C274.028503,378.124786 273.902466,344.133728 274.122223,310.144958 
	C274.174744,302.022980 274.741730,293.792236 276.193970,285.815765 
	C278.856934,271.189148 285.864380,259.453644 301.410980,255.536194 
	C306.652069,254.215530 312.284821,253.938583 317.725891,254.020996 
	C331.990692,254.237106 342.141388,261.186798 345.935577,274.916321 
	C348.514832,284.249542 349.826141,294.199493 349.953186,303.896545 
	C350.426819,340.046783 350.177338,376.206543 350.199005,412.362701 
	C350.200073,414.151245 350.199127,415.939758 350.199127,417.946198 
	C373.071381,417.946198 395.468811,417.946198 418.250793,417.946198 
	C418.250793,416.755310 418.250946,415.797913 418.250763,414.840515 
	C418.243469,375.518555 418.624939,336.190765 418.034668,296.877563 
	C417.803345,281.474121 416.548218,265.886444 413.707947,250.768082 
	C409.336975,227.502411 397.395782,209.094269 374.208191,200.001740 
	C359.810577,194.356003 344.719147,192.878815 329.522430,194.198029 
	C305.661682,196.269363 286.270935,206.558121 273.318329,227.390045 
	C272.917328,228.035004 273.024384,228.995911 272.894562,229.809509 
	C272.315765,229.347473 271.736969,228.885422 271.158173,228.423386 
	C271.158173,218.835587 271.158173,209.247787 271.158173,199.180466 
	C268.033691,199.180466 265.240173,199.180466 261.459625,199.180466 
M163.280685,360.500183 
	C163.280685,306.881561 163.280685,253.262939 163.280685,199.486816 
	C140.398758,199.486816 118.009171,199.486816 95.571480,199.486816 
	C95.571480,272.510681 95.571480,345.225830 95.571480,417.833069 
	C118.334106,417.833069 140.744675,417.833069 163.116348,417.833069 
	C163.192535,417.154022 163.261337,416.826111 163.261520,416.498138 
	C163.271545,398.165497 163.275818,379.832855 163.280685,360.500183 
M166.283157,116.365128 
	C165.628922,114.840927 165.066360,113.269325 164.306473,111.799751 
	C154.995987,93.793762 133.560928,85.720566 114.876373,93.154724 
	C95.922974,100.695854 85.722153,121.535530 91.462204,140.988525 
	C97.177765,160.358566 116.752769,172.528458 136.468277,168.763504 
	C160.137360,164.243561 174.434784,140.172363 166.283157,116.365128 
z"/>
<path fill="#FEFEFE" opacity="1.000000" stroke="none" 
	d="
M261.953125,199.180466 
	C265.240173,199.180466 268.033691,199.180466 271.158173,199.180466 
	C271.158173,209.247787 271.158173,218.835587 271.158173,228.423386 
	C271.736969,228.885422 272.315765,229.347473 272.894562,229.809509 
	C273.024384,228.995911 272.917328,228.035004 273.318329,227.390045 
	C286.270935,206.558121 305.661682,196.269363 329.522430,194.198029 
	C344.719147,192.878815 359.810577,194.356003 374.208191,200.001740 
	C397.395782,209.094269 409.336975,227.502411 413.707947,250.768082 
	C416.548218,265.886444 417.803345,281.474121 418.034668,296.877563 
	C418.624939,336.190765 418.243469,375.518555 418.250763,414.840515 
	C418.250946,415.797913 418.250793,416.755310 418.250793,417.946198 
	C395.468811,417.946198 373.071381,417.946198 350.199127,417.946198 
	C350.199127,415.939758 350.200073,414.151245 350.199005,412.362701 
	C350.177338,376.206543 350.426819,340.046783 349.953186,303.896545 
	C349.826141,294.199493 348.514832,284.249542 345.935577,274.916321 
	C342.141388,261.186798 331.990692,254.237106 317.725891,254.020996 
	C312.284821,253.938583 306.652069,254.215530 301.410980,255.536194 
	C285.864380,259.453644 278.856934,271.189148 276.193970,285.815765 
	C274.741730,293.792236 274.174744,302.022980 274.122223,310.144958 
	C273.902466,344.133728 274.028503,378.124786 274.027832,412.114990 
	C274.027802,413.933105 274.027832,415.751190 274.027832,417.907867 
	C251.442459,417.907867 229.048065,417.907867 206.340271,417.907867 
	C206.340271,345.367645 206.340271,272.624725 206.340271,199.180466 
	C224.621353,199.180466 243.040497,199.180466 261.953125,199.180466 
z"/>
<path fill="#FEFEFE" opacity="1.000000" stroke="none" 
	d="
M163.280670,361.000183 
	C163.275818,379.832855 163.271545,398.165497 163.261520,416.498138 
	C163.261337,416.826111 163.192535,417.154022 163.116348,417.833069 
	C140.744675,417.833069 118.334106,417.833069 95.571480,417.833069 
	C95.571480,345.225830 95.571480,272.510681 95.571480,199.486816 
	C118.009171,199.486816 140.398758,199.486816 163.280685,199.486816 
	C163.280685,253.262939 163.280685,306.881561 163.280670,361.000183 
z"/>
<path fill="#FDFDFD" opacity="1.000000" stroke="none" 
	d="
M166.465485,116.717445 
	C174.434784,140.172363 160.137360,164.243561 136.468277,168.763504 
	C116.752769,172.528458 97.177765,160.358566 91.462204,140.988525 
	C85.722153,121.535530 95.922974,100.695854 114.876373,93.154724 
	C133.560928,85.720566 154.995987,93.793762 164.306473,111.799751 
	C165.066360,113.269325 165.628922,114.840927 166.465485,116.717445 
z"/>
</svg>